<svg xmlns="http://www.w3.org/2000/svg" width="24" height="24" viewBox="0 0 24 24">
  <path id="schedule_24dp_1F1F1F_FILL0_wght400_GRAD0_opsz24" d="M95.96-862.36l1.68-1.68-4.44-4.44V-874H90.8v6.48ZM92-856a11.686,11.686,0,0,1-4.68-.945,12.119,12.119,0,0,1-3.81-2.565,12.119,12.119,0,0,1-2.565-3.81A11.685,11.685,0,0,1,80-868a11.685,11.685,0,0,1,.945-4.68,12.118,12.118,0,0,1,2.565-3.81,12.116,12.116,0,0,1,3.81-2.565A11.684,11.684,0,0,1,92-880a11.684,11.684,0,0,1,4.68.945,12.116,12.116,0,0,1,3.81,2.565,12.118,12.118,0,0,1,2.565,3.81A11.685,11.685,0,0,1,104-868a11.685,11.685,0,0,1-.945,4.68,12.119,12.119,0,0,1-2.565,3.81,12.119,12.119,0,0,1-3.81,2.565A11.686,11.686,0,0,1,92-856ZM92-868Zm0,9.6a9.254,9.254,0,0,0,6.795-2.8A9.254,9.254,0,0,0,101.6-868a9.254,9.254,0,0,0-2.805-6.8A9.255,9.255,0,0,0,92-877.6a9.255,9.255,0,0,0-6.8,2.8,9.254,9.254,0,0,0-2.8,6.8,9.254,9.254,0,0,0,2.8,6.795A9.254,9.254,0,0,0,92-858.4Z" transform="translate(-80 880)" fill="#4a5565"/>
</svg>
