<svg width="15" height="20" viewBox="0 0 15 20" fill="none" xmlns="http://www.w3.org/2000/svg">
<path d="M7.05882 10V0.909091C7.05882 0.651515 7.14338 0.435606 7.3125 0.261364C7.48162 0.0871212 7.69118 0 7.94118 0C8.19118 0 8.40074 0.0871212 8.56985 0.261364C8.73897 0.435606 8.82353 0.651515 8.82353 0.909091V10H7.05882ZM3.52941 10V1.81818C3.52941 1.56061 3.61397 1.3447 3.78309 1.17045C3.95221 0.996212 4.16176 0.909091 4.41176 0.909091C4.66176 0.909091 4.87132 0.996212 5.04044 1.17045C5.20956 1.3447 5.29412 1.56061 5.29412 1.81818V10H3.52941ZM7.5 20C5.41176 20 3.63971 19.25 2.18382 17.75C0.727941 16.25 0 14.4242 0 12.2727V3.63636C0 3.37879 0.0845588 3.16288 0.253676 2.98864C0.422794 2.81439 0.632353 2.72727 0.882353 2.72727C1.13235 2.72727 1.34191 2.81439 1.51103 2.98864C1.68015 3.16288 1.76471 3.37879 1.76471 3.63636V12.2727C1.76471 13.9242 2.31985 15.322 3.43015 16.4659C4.54044 17.6098 5.89706 18.1818 7.5 18.1818C9.10294 18.1818 10.4596 17.6098 11.5699 16.4659C12.6801 15.322 13.2353 13.9242 13.2353 12.2727V9.09091C12.9853 9.09091 12.7757 9.17803 12.6066 9.35227C12.4375 9.52652 12.3529 9.74242 12.3529 10V13.6364H9.70588C9.22059 13.6364 8.80515 13.8144 8.45956 14.1705C8.11397 14.5265 7.94118 14.9545 7.94118 15.4545V16.3636H6.17647V15.4545C6.17647 14.4545 6.52206 13.5985 7.21324 12.8864C7.90441 12.1742 8.73529 11.8182 9.70588 11.8182H10.5882V2.72727C10.5882 2.4697 10.6728 2.25379 10.8419 2.07955C11.011 1.9053 11.2206 1.81818 11.4706 1.81818C11.7206 1.81818 11.9301 1.9053 12.0993 2.07955C12.2684 2.25379 12.3529 2.4697 12.3529 2.72727V7.43182C12.5 7.38636 12.6434 7.34849 12.7831 7.31818C12.9228 7.28788 13.0735 7.27273 13.2353 7.27273H15V12.2727C15 14.4242 14.2721 16.25 12.8162 17.75C11.3603 19.25 9.58824 20 7.5 20Z" fill="#474747"/>
</svg>
