<svg width="42" height="29" viewBox="0 0 42 29" fill="none" xmlns="http://www.w3.org/2000/svg">
  <path d="M16.7656 12.6055H21.499V15.7666H16.7656V20.5H13.6045V15.7666H9V12.6055H13.6045V8H16.7656V12.6055Z" />
  <path d="M35.1512 14.9551V16.5137C35.1512 17.127 35.0789 17.6602 34.9344 18.1133C34.7938 18.5664 34.5906 18.9414 34.325 19.2383C34.0633 19.5352 33.7508 19.7559 33.3875 19.9004C33.0242 20.0449 32.6238 20.1172 32.1863 20.1172C31.8348 20.1172 31.5067 20.0723 31.202 19.9824C30.8973 19.8887 30.6219 19.748 30.3758 19.5605C30.1336 19.3691 29.9246 19.1309 29.7488 18.8457C29.5731 18.5605 29.4383 18.2246 29.3445 17.8379C29.2508 17.4473 29.2039 17.0059 29.2039 16.5137V14.9551C29.2039 14.3379 29.2742 13.8047 29.4149 13.3555C29.5594 12.9023 29.7645 12.5273 30.0301 12.2305C30.2957 11.9336 30.6102 11.7129 30.9735 11.5684C31.3367 11.4238 31.7371 11.3516 32.1746 11.3516C32.5262 11.3516 32.8524 11.3984 33.1531 11.4922C33.4578 11.582 33.7332 11.7227 33.9793 11.9141C34.2254 12.1016 34.4344 12.3379 34.6063 12.623C34.782 12.9082 34.9168 13.2461 35.0106 13.6367C35.1043 14.0234 35.1512 14.4629 35.1512 14.9551ZM33.1766 16.7539V14.7031C33.1766 14.4297 33.161 14.1914 33.1297 13.9883C33.1024 13.7852 33.0594 13.6133 33.0008 13.4727C32.9461 13.332 32.8777 13.2188 32.7957 13.1328C32.7137 13.043 32.6199 12.9785 32.5145 12.9395C32.4129 12.8965 32.2996 12.875 32.1746 12.875C32.0184 12.875 31.8777 12.9082 31.7527 12.9746C31.6317 13.0371 31.5281 13.1387 31.4422 13.2793C31.3563 13.4199 31.2899 13.6074 31.243 13.8418C31.2 14.0762 31.1785 14.3633 31.1785 14.7031V16.7539C31.1785 17.0312 31.1922 17.2734 31.2195 17.4805C31.2508 17.6836 31.2938 17.8574 31.3485 18.002C31.407 18.1426 31.4774 18.2578 31.5594 18.3477C31.6414 18.4336 31.7352 18.4961 31.8406 18.5352C31.9461 18.5742 32.0613 18.5938 32.1863 18.5938C32.3387 18.5938 32.4754 18.5625 32.5965 18.5C32.7176 18.4375 32.8211 18.3359 32.907 18.1953C32.9969 18.0508 33.0633 17.8613 33.1063 17.627C33.1531 17.3887 33.1766 17.0977 33.1766 16.7539Z" />
  <path d="M27.2375 11.4688V20H25.2629V13.6953L23.3176 14.2637V12.7637L27.0558 11.4688H27.2375Z" />
</svg>