<svg width="42" height="29" viewBox="0 0 42 29" fill="none" xmlns="http://www.w3.org/2000/svg">
  <path d="M24.8607 16.8968L24.8607 20.4016L11 20.4016L11 16.8968L16.4453 16.8968L16.4453 7.99997L19.6629 7.99997L19.6629 16.8968L24.8607 16.8968Z" />
  <path d="M28.3457 15.4482H29.3066C29.5527 15.4482 29.7539 15.4052 29.9102 15.3193C30.0703 15.2294 30.1895 15.1044 30.2676 14.9443C30.3457 14.7802 30.3848 14.5869 30.3848 14.3642C30.3848 14.1923 30.3477 14.0341 30.2734 13.8896C30.2031 13.7451 30.0938 13.6298 29.9453 13.5439C29.7969 13.454 29.6074 13.4091 29.377 13.4091C29.2207 13.4091 29.0684 13.4423 28.9199 13.5087C28.7715 13.5712 28.6484 13.6611 28.5508 13.7783C28.457 13.8954 28.4102 14.038 28.4102 14.206H26.4297C26.4297 13.7216 26.5625 13.3076 26.8281 12.9638C27.0977 12.6161 27.4512 12.3505 27.8887 12.1669C28.3301 11.9794 28.8047 11.8857 29.3125 11.8857C29.918 11.8857 30.4492 11.9794 30.9062 12.1669C31.3633 12.3505 31.7188 12.624 31.9727 12.9872C32.2305 13.3466 32.3594 13.7919 32.3594 14.3232C32.3594 14.6161 32.291 14.8915 32.1543 15.1494C32.0176 15.4072 31.8262 15.6337 31.5801 15.829C31.334 16.0244 31.0449 16.1786 30.7129 16.2919C30.3848 16.4013 30.0254 16.456 29.6348 16.456H28.3457V15.4482ZM28.3457 16.9189V15.9345H29.6348C30.0605 15.9345 30.4492 15.9833 30.8008 16.081C31.1523 16.1747 31.4551 16.3154 31.709 16.5029C31.9629 16.6904 32.1582 16.9228 32.2949 17.2001C32.4316 17.4736 32.5 17.788 32.5 18.1435C32.5 18.5419 32.4199 18.8974 32.2598 19.2099C32.0996 19.5224 31.875 19.7861 31.5859 20.0009C31.2969 20.2158 30.959 20.3798 30.5723 20.4931C30.1855 20.6025 29.7656 20.6572 29.3125 20.6572C28.957 20.6572 28.6016 20.6103 28.2461 20.5165C27.8906 20.4189 27.5664 20.2704 27.2734 20.0712C26.9805 19.8681 26.7441 19.6103 26.5645 19.2978C26.3887 18.9814 26.3008 18.6044 26.3008 18.1669H28.2812C28.2812 18.3466 28.3301 18.5107 28.4277 18.6591C28.5293 18.8036 28.6641 18.9189 28.832 19.0048C29 19.0908 29.1816 19.1337 29.377 19.1337C29.6191 19.1337 29.8242 19.0888 29.9922 18.999C30.1641 18.9052 30.2949 18.7802 30.3848 18.624C30.4746 18.4677 30.5195 18.2939 30.5195 18.1025C30.5195 17.8134 30.4707 17.5829 30.373 17.4111C30.2793 17.2392 30.1406 17.1142 29.957 17.0361C29.7773 16.9579 29.5605 16.9189 29.3066 16.9189H28.3457Z" />
</svg>