<svg width="42" height="29" viewBox="0 0 42 29" fill="none" xmlns="http://www.w3.org/2000/svg">
  <path d="M24.9375 17.4062C24.9375 18.1302 24.7656 18.737 24.4219 19.2266C24.0833 19.7161 23.6146 20.0833 23.0156 20.3281C22.4219 20.5729 21.7448 20.6953 20.9844 20.6953C20.2292 20.6953 19.5495 20.5729 18.9453 20.3281C18.3464 20.0833 17.8724 19.7161 17.5234 19.2266C17.1745 18.737 17 18.1302 17 17.4062C17 16.9115 17.099 16.4688 17.2969 16.0781C17.5 15.6823 17.7812 15.3464 18.1406 15.0703C18.5 14.7943 18.9193 14.5833 19.3984 14.4375C19.8828 14.2917 20.4062 14.2188 20.9688 14.2188C21.7292 14.2188 22.4089 14.349 23.0078 14.6094C23.6068 14.8646 24.0781 15.2292 24.4219 15.7031C24.7656 16.1771 24.9375 16.7448 24.9375 17.4062ZM22.2891 17.1953C22.2891 16.8828 22.2344 16.6198 22.125 16.4062C22.0156 16.1875 21.862 16.0208 21.6641 15.9062C21.4661 15.7917 21.2344 15.7344 20.9688 15.7344C20.7083 15.7344 20.4766 15.7917 20.2734 15.9062C20.0755 16.0208 19.9193 16.1875 19.8047 16.4062C19.6953 16.6198 19.6406 16.8828 19.6406 17.1953C19.6406 17.4974 19.6979 17.7604 19.8125 17.9844C19.9271 18.2031 20.0833 18.3724 20.2812 18.4922C20.4844 18.6068 20.7188 18.6641 20.9844 18.6641C21.25 18.6641 21.4792 18.6068 21.6719 18.4922C21.8698 18.3724 22.0208 18.2031 22.125 17.9844C22.2344 17.7604 22.2891 17.4974 22.2891 17.1953ZM24.7031 12.2031C24.7031 12.7969 24.5443 13.3177 24.2266 13.7656C23.9141 14.2083 23.4766 14.5547 22.9141 14.8047C22.3568 15.0495 21.7135 15.1719 20.9844 15.1719C20.2604 15.1719 19.6146 15.0495 19.0469 14.8047C18.4844 14.5547 18.0417 14.2083 17.7188 13.7656C17.401 13.3177 17.2422 12.7969 17.2422 12.2031C17.2422 11.5052 17.401 10.9193 17.7188 10.4453C18.0417 9.97135 18.4844 9.61198 19.0469 9.36719C19.6094 9.1224 20.25 9 20.9688 9C21.6979 9 22.3438 9.1224 22.9062 9.36719C23.4688 9.61198 23.9089 9.97135 24.2266 10.4453C24.5443 10.9193 24.7031 11.5052 24.7031 12.2031ZM22.0703 12.3438C22.0703 12.0729 22.0286 11.8411 21.9453 11.6484C21.862 11.4505 21.7396 11.2995 21.5781 11.1953C21.4167 11.0859 21.2135 11.0312 20.9688 11.0312C20.7344 11.0312 20.5365 11.0833 20.375 11.1875C20.2135 11.2917 20.0911 11.4427 20.0078 11.6406C19.9245 11.8333 19.8828 12.0677 19.8828 12.3438C19.8828 12.6146 19.9245 12.8516 20.0078 13.0547C20.0911 13.2578 20.2135 13.4167 20.375 13.5312C20.5417 13.6458 20.7448 13.7031 20.9844 13.7031C21.2292 13.7031 21.4297 13.6458 21.5859 13.5312C21.7474 13.4167 21.8672 13.2578 21.9453 13.0547C22.0286 12.8516 22.0703 12.6146 22.0703 12.3438Z" />
</svg>