<svg width="42" height="29" viewBox="0 0 42 29" fill="none" xmlns="http://www.w3.org/2000/svg">
  <path d="M26.7949 18.7352H26.9121C27.3027 18.7352 27.6543 18.6922 27.9668 18.6063C28.2793 18.5203 28.5469 18.3875 28.7695 18.2078C28.9922 18.0242 29.1621 17.7879 29.2793 17.4988C29.4004 17.2059 29.4609 16.8524 29.4609 16.4383V14.6746C29.4609 14.4012 29.4375 14.1649 29.3906 13.9656C29.3438 13.7625 29.2754 13.5945 29.1855 13.4617C29.0957 13.3289 28.9883 13.2313 28.8633 13.1688C28.7383 13.1024 28.5977 13.0692 28.4414 13.0692C28.2852 13.0692 28.1465 13.1141 28.0254 13.2039C27.9082 13.2899 27.8066 13.407 27.7207 13.5555C27.6387 13.7 27.5762 13.8641 27.5332 14.0477C27.4902 14.2274 27.4688 14.409 27.4688 14.5926C27.4688 14.7996 27.4902 14.993 27.5332 15.1727C27.5801 15.3484 27.6465 15.5027 27.7324 15.6356C27.8223 15.7645 27.9336 15.866 28.0664 15.9402C28.2031 16.0145 28.3613 16.0516 28.541 16.0516C28.7207 16.0516 28.875 16.0203 29.0039 15.9578C29.1367 15.8914 29.2461 15.8055 29.332 15.7C29.418 15.5906 29.4805 15.4734 29.5195 15.3484C29.5625 15.2234 29.582 15.1004 29.5781 14.9793L30.1523 15.4305C30.1523 15.6805 30.0957 15.9266 29.9824 16.1688C29.8691 16.4109 29.7129 16.6317 29.5137 16.8309C29.3145 17.0262 29.084 17.1824 28.8223 17.2996C28.5645 17.4168 28.291 17.4754 28.002 17.4754C27.6152 17.4754 27.2656 17.407 26.9531 17.2703C26.6445 17.1336 26.3809 16.9383 26.1621 16.6844C25.9434 16.4305 25.7754 16.1277 25.6582 15.7762C25.5449 15.4207 25.4883 15.0262 25.4883 14.5926C25.4883 14.1746 25.5605 13.782 25.7051 13.4149C25.8496 13.0477 26.0547 12.7254 26.3203 12.4481C26.5859 12.1668 26.9004 11.9461 27.2637 11.7859C27.627 11.6258 28.0254 11.5457 28.459 11.5457C28.8691 11.5457 29.2539 11.6238 29.6133 11.7801C29.9727 11.9324 30.2891 12.157 30.5625 12.4539C30.8359 12.7508 31.0508 13.116 31.207 13.5496C31.3633 13.9832 31.4414 14.4793 31.4414 15.0379V15.7176C31.4414 16.3231 31.3672 16.8699 31.2188 17.3582C31.0703 17.8465 30.8594 18.2762 30.5859 18.6473C30.3125 19.0145 29.9883 19.3231 29.6133 19.5731C29.2422 19.8192 28.8301 20.0047 28.377 20.1297C27.9277 20.2547 27.4512 20.3172 26.9473 20.3172H26.7949V18.7352Z" />
  <path d="M19.1459 14.1458L25.2917 7.99998L13 7.99998L19.1459 14.1458Z" />
  <path d="M19.1458 14L13 20.1458H25.2917L19.1458 14Z" />
</svg>